<svg width="115" height="121" viewBox="0 0 115 121" fill="none" xmlns="http://www.w3.org/2000/svg">
<path fill-rule="evenodd" clip-rule="evenodd" d="M10.5351 33.7906C7.09379 30.6585 4.93373 26.1432 4.93373 21.1234C4.93373 11.6664 12.6001 4 22.0571 4C27.0769 4 31.5923 6.16005 34.7243 9.60138C35.9696 8.99003 37.2424 8.42627 38.5405 7.91248C34.6691 3.08838 28.7238 0 22.0571 0C10.391 0 0.933735 9.45726 0.933735 21.1234C0.933735 27.7901 4.02212 33.7354 8.84621 37.6068C9.36001 36.3087 9.92376 35.0358 10.5351 33.7906ZM107.088 37.6068C111.912 33.7354 115 27.7901 115 21.1234C115 9.45726 105.543 0 93.8766 0C87.2099 0 81.2646 3.08838 77.3933 7.91248C78.6913 8.42627 79.9642 8.99003 81.2094 9.60138C84.3415 6.16005 88.8568 4 93.8766 4C103.334 4 111 11.6664 111 21.1234C111 26.1432 108.84 30.6585 105.399 33.7906C106.01 35.0358 106.574 36.3087 107.088 37.6068ZM58 100C82.3005 100 102 80.3005 102 56C102 31.6995 82.3005 12 58 12C33.6995 12 14 31.6995 14 56C14 80.3005 33.6995 100 58 100ZM58 106C85.6142 106 108 83.6142 108 56C108 28.3858 85.6142 6 58 6C30.3858 6 8 28.3858 8 56C8 83.6142 30.3858 106 58 106ZM36.0237 105.769C36.7392 104.928 36.637 103.665 35.7955 102.95C34.9539 102.235 33.6917 102.337 32.9763 103.178L21.4763 116.705C20.7608 117.546 20.863 118.808 21.7045 119.524C22.5461 120.239 23.8083 120.137 24.5237 119.295L36.0237 105.769ZM79.7045 103.074C78.863 103.79 78.7608 105.052 79.4763 105.894L90.9763 119.42C91.6917 120.261 92.9539 120.364 93.7955 119.648C94.637 118.933 94.7392 117.67 94.0237 116.829L82.5237 103.303C81.8083 102.461 80.5461 102.359 79.7045 103.074ZM60.5 23C60.5 21.6193 59.3807 20.5 58 20.5C56.6193 20.5 55.5 21.6193 55.5 23V56V57.0355L56.2322 57.7678L75.2322 76.7678C76.2085 77.7441 77.7915 77.7441 78.7678 76.7678C79.7441 75.7915 79.7441 74.2085 78.7678 73.2322L60.5 54.9645V23Z" fill="#4A9FE0"/>
</svg>
