<svg width="102" height="120" viewBox="0 0 102 120" fill="none" xmlns="http://www.w3.org/2000/svg">
<path fill-rule="evenodd" clip-rule="evenodd" d="M30 0C28.3431 0 27 1.34315 27 3V11C27 12.6569 28.3431 14 30 14H42V20.6366C18.1886 24.4657 0 45.1087 0 70C0 97.6142 22.3858 120 50 120C77.6142 120 100 97.6142 100 70C100 60.1157 97.1318 50.9012 92.1824 43.1435L100.305 35.0208C101.477 33.8492 101.477 31.9497 100.305 30.7782L94.6482 25.1213C93.4767 23.9497 91.5772 23.9497 90.4056 25.1213L83.0484 32.4785C76.1311 26.3811 67.5144 22.1666 58 20.6366V14H70C71.6569 14 73 12.6569 73 11V3C73 1.34315 71.6569 0 70 0H30ZM21.0625 45.5C19.125 47.5 17.5 67.5 18.4375 68.625C19.375 69.75 25.625 70.4062 25.625 70.4062L26.5 69.5937C27.8333 68.4687 29.5729 67.9062 31.7187 67.9062C34.0521 67.9062 35.8542 68.5937 37.125 69.9687C38.3958 71.3437 39.0312 73.3229 39.0312 75.9062C39.0312 78.5937 38.4792 80.6771 37.375 82.1562C36.2708 83.6146 34.6979 84.3438 32.6562 84.3438C30.8229 84.3438 29.3333 83.8229 28.1875 82.7812C27.0625 81.7188 26.4062 80.2396 26.2187 78.3438C26.0312 76.4479 17.1979 75.7604 17.2812 78.3438C17.3646 80.9271 18.0833 83.2292 19.4375 85.25C20.8125 87.2708 22.6771 88.8438 25.0312 89.9688C27.3854 91.0729 29.9375 91.625 32.6875 91.625C35.8333 91.625 38.5625 90.9896 40.875 89.7188C43.1875 88.4271 44.9583 86.625 46.1875 84.3125C47.4375 81.9792 48.0625 79.3438 48.0625 76.4062C48.0625 71.5729 46.8333 67.8125 44.375 65.125C41.9167 62.4375 38.5208 61.0937 34.1875 61.0937C31.7708 61.0937 29.4896 61.6666 27.3437 62.8125L28.4687 53.0312C28.4687 53.0312 45.5 54 46.5625 53.0312C47.625 52.0625 47.625 47 46.5625 45.5C45.5 44 23 43.5 21.0625 45.5ZM80.5625 86.625C83.1667 83.2917 84.4687 78.4791 84.4687 72.1875V63.8125C84.4062 57.7083 83.0625 53.0312 80.4375 49.7812C77.8125 46.5104 74.0208 44.875 69.0625 44.875C64.1042 44.875 60.3021 46.5208 57.6562 49.8125C55.0312 53.1041 53.7187 57.9271 53.7187 64.2812V72.6562C53.7812 78.7604 55.125 83.4479 57.75 86.7188C60.375 89.9896 64.1667 91.625 69.125 91.625C74.1458 91.625 77.9583 89.9583 80.5625 86.625ZM73.875 54.7812C74.9167 56.4896 75.4375 59.2291 75.4375 63V73.8125C75.3958 77.375 74.8854 80.0208 73.9062 81.75C72.9271 83.4792 71.3333 84.3438 69.125 84.3438C66.8958 84.3438 65.2708 83.4479 64.25 81.6562C63.25 79.8438 62.75 77.0833 62.75 73.375V62.3125C62.8125 58.8333 63.3437 56.2812 64.3437 54.6562C65.3646 53.0104 66.9375 52.1875 69.0625 52.1875C71.25 52.1875 72.8542 53.0521 73.875 54.7812Z" fill="#4A9FE0"/>
</svg>
